<svg xmlns="http://www.w3.org/2000/svg" width="256" height="256" viewBox="0 0 256 256">
  <defs>
    <style>
      .cls-1 {
        fill: #fff;
        fill-rule: evenodd;
      }
    </style>
  </defs>
  <path id="bazaar_1" data-name="bazaar 1" class="cls-1" d="M58.135,252.466l9.35-3.49L85.015,242l19.868-10.469,16.362-9.306,14.024-9.306,12.856-9.306,12.856-10.469,15.193-17.448,7.012-11.633,4.675-9.306,3.506-12.795v-5.816L190.2,128l-5.844-6.979-7.012-3.49-12.855-3.49-19.868-3.49-19.868-2.326H111.9l9.35-8.143,23.374-19.775,16.362-12.8,9.349-9.306,7.012-11.632,3.506-8.143,1.169-16.285-2.337-5.816-2.338-3.49-4.674-3.49-7.013-2.326L151.631,4.7,135.269,3.534,120.076,29.125v3.49l11.687-4.653h10.518l5.844,3.49,3.506,4.653,1.169,3.49,1.168,4.653-1.168,3.49-7.013,11.632L120.076,86.124l-16.362,15.122L82.678,118.694l-9.35,8.143v2.326h37.4l24.542,4.653,11.687,3.49,7.012,5.816,4.675,5.816,2.338,5.816v15.122l-2.338,5.817-8.181,12.795-9.349,9.306-12.856,11.632-16.362,12.8-10.518,5.816-15.193,8.143L73.328,242l-9.35,4.653-5.844,3.49-1.169,2.326h1.169Z"/>
</svg>
